<?xml version="1.0" encoding="UTF-8"?>
<svg id="Layer_1" xmlns="http://www.w3.org/2000/svg" version="1.1" viewBox="0 0 135.16 111.99">
  <!-- Generator: Adobe Illustrator 29.5.0, SVG Export Plug-In . SVG Version: 2.1.0 Build 137)  -->
  <defs>
    <style>
      .st0 {
        fill: #ecc9b1;
      }

      .st1 {
        fill: none;
        stroke: #ecc9b1;
        stroke-miterlimit: 10;
        stroke-width: 2px;
      }
    </style>
  </defs>
  <path class="st0" d="M68.81,55.99c-3.72-.81-7.62,2.05-9.97,4.65-2.56,2.84-4.25,6.35-4.86,10.12-.56,3.45-.92,8.41,1.94,10.99,1.22,1.09,2.91,1.6,4.42,2.17s3.02,1.35,4.68,1.04c3.27-.61,5.71-3.41,6.24-6.64.04-.27-3.54-1.11-3.51-1.33-.54,3.3-3.06,6.13-6.41,6.68-.66.11-1.17-.04-1.82-.11-.94-.31-.5-.15,1.32.47-.22-.11-.44-.24-.65-.37-.78-.5-1.39-1.16-1.89-1.94-1.16-1.85-1.14-4.26-1.1-6.38.08-4.44,1.46-8.69,4.19-12.22,2.39-3.09,6.71-6.71,10.92-5.79-1.2-.26-2.29-1.07-3.51-1.33h0Z"/>
  <path class="st0" d="M41.71,39.09c.36,2.86.52,5.73.49,8.61,0,1.31.01,2.65-.09,3.96-.05.63-.32,2.52-1.27,2.42l3.51,1.33-.02-.12c-.04-.19-1.54-.6-1.75-.68-.41-.16-.83-.31-1.24-.47-.06-.02-.51-.15-.52-.18l.02.12c.04.19,1.54.6,1.75.68.54.21,1.18.59,1.76.65.96.1,1.22-1.8,1.27-2.42.11-1.31.08-2.65.09-3.96.02-2.88-.13-5.75-.49-8.61-.02-.17-1.56-.61-1.75-.68s-1.74-.49-1.76-.65h0Z"/>
  <path class="st0" d="M36.18,44.96c1.34-1.28,2.82-2.41,4.08-3.78,1.37-1.5,2.51-3.23,3.48-5.01.83-1.51,1.53-3.04,2.93-4.12.62-.48,1.31-.86,2.08-1.03,1.51-.34,4.29.8.21-.83l-.24-.1c4.04,1.92,4.92,6.83,2.09,10.19-.65.77-1.43,1.44-2.25,2.04-.38.27-.76.53-1.17.76-.3.17-1.25.41-1.44.72-.18.29-.06.15.16.32.27.21.81.32,1.13.44.82.31,1.71.79,2.59.89.81.09,1.65-.03,2.47.05.58.06,1.15.14,1.72.25.28.05.57.11.85.18l.77.22c-1.9-.79-2.46-.98-1.7-.56,1.67,1.16,2.81,2.49,2.89,4.62.15,4.1-2.57,7.66-5.78,9.9-4.12,2.88-9.42,4.49-14.38,3.09l3.51,1.33c-.69-.4-1.53-.76-2.11-1.29-.55-.51-1.01-1.23-1.36-1.89-.73-1.38-1.15-3-1.56-4.49-.06-.21-1.52-.6-1.75-.68s-1.7-.44-1.76-.65c.56,2.04,1.14,4.22,2.49,5.89,1.17,1.46,3.27,2.09,4.97,2.73,3.85,1.44,7.96,1.02,11.71-.59,3.39-1.47,6.68-3.83,8.37-7.2s1.81-7.42-1.73-9.43c-1.69-.96-3.73-1.65-5.59-2.19-.99-.29-2.02-.46-3.05-.56-.92-.09-1.94.09-2.84-.11l3.51,1.33c-.37-.22,1.5-1.02,1.77-1.18.81-.5,1.57-1.09,2.26-1.74,1.31-1.24,2.33-2.8,2.53-4.63.22-1.96-.61-3.88-2.02-5.22-1.25-1.19-2.97-1.68-4.55-2.27s-3.22-1.1-4.9-.44-2.88,2.24-3.74,3.85c-1.02,1.91-2.1,3.76-3.48,5.43s-3.1,2.96-4.65,4.45c.08-.07,1.58.62,1.75.68.19.07,1.63.77,1.76.65h0Z"/>
  <path class="st0" d="M62.27,42.23c.45,2.16.55,4.36.3,6.55-.12,1.05-.31,2.1-.55,3.13-.11.48-.22.96-.41,1.41-.16.4-.36.78-.37,1.22,0,.12,1.59.62,1.75.68s1.76.55,1.76.65c.01-.44.21-.82.37-1.22.18-.45.3-.94.41-1.41.24-1.03.43-2.08.55-3.13.25-2.19.15-4.39-.3-6.55,0-.04-.56-.23-.51-.21-.41-.16-.82-.32-1.24-.48s-.83-.31-1.24-.47c-.06-.02-.51-.15-.52-.18h0Z"/>
  <path class="st0" d="M68.95,45.45c-.2.24-.47.51-.81.41l.06.02h-.03c1.13.42,2.25.84,3.38,1.27h-.03s.04,0,.06.02c-.44-.21-.68-.76-.89-1.18-.24-.49-.44-1.03-.78-1.46-.28-.35-.76-.45-1.16-.6-.83-.32-1.67-.66-2.52-.95-.13-.04-.23-.08-.36-.06-.26.04-.52.2-.74.33-.33.2-.64.42-.94.65-.32.24-.64.49-.95.73-.18.14-.37.32-.58.42.03-.01.56.23.51.21.41.16.82.32,1.24.48s.83.31,1.24.47c.09.03.44.22.52.18.21-.1.4-.28.58-.42.34-.26.67-.52,1.01-.78s.68-.49,1.04-.7c.22-.12.51-.29.77-.24l-.06-.02-3.3-1.25-.06-.03c.33.18.52.62.68.94.23.46.43.94.7,1.37.11.17.23.34.39.47.07.06.15.1.24.14.77.35,1.59.62,2.38.92.37.14.77.35,1.16.42.08.01.15.01.23,0,.22-.06.39-.25.53-.42,0,0-.59-.24-.51-.21-.41-.16-.82-.32-1.24-.48s-.83-.31-1.24-.47c-.06-.02-.5-.21-.52-.18h0Z"/>
  <path class="st0" d="M72.98,43.65c-.53.63-.55,1.53-.71,2.3-.2.92-.2,1.86-.23,2.8-.08,1.97.3,3.81.8,5.71.01.04.55.23.51.21.41.16.82.32,1.24.48s.83.31,1.24.47c.07.02.51.14.52.18-.5-1.9-.88-3.73-.8-5.71.04-.94.03-1.88.23-2.8.17-.77.19-1.68.71-2.3-.05.06-1.6-.63-1.75-.68-.41-.16-.83-.31-1.24-.47-.06-.02-.49-.21-.52-.18h0Z"/>
  <path class="st0" d="M73.39,39.53c-.48.39-.85,1-.69,1.64.05.17.12.36.26.48.05.05.11.08.17.11.56.25,1.15.46,1.73.67.5.19,1.01.38,1.52.57.08.03.18.07.27.09.07.02.14.02.22.01-.05-.02-.1-.05-.15-.06-.12-.05-.24-.1-.36-.14-.41-.16-.82-.32-1.24-.48s-.83-.31-1.24-.47l-.28-.1c-.08-.03-.16-.06-.24-.08-.07,0-.14,0-.22-.01l.06.02h-.02c.98.36,1.96.73,2.93,1.1l.4.16.06.03c-.3-.16-.42-.58-.41-.89.01-.53.33-.98.73-1.3-.01,0-.58-.24-.51-.21-.41-.16-.82-.32-1.24-.48s-.83-.31-1.24-.47l-.28-.1c-.08-.03-.16-.06-.24-.08h0Z"/>
  <path class="st0" d="M85.72,46.63c-.03-.88-.98-1.06-1.67-1.32-.85-.33-1.71-.69-2.58-.97-.35-.11-.71-.14-1.08-.09-1.43.2-2.53,1.43-3.05,2.7-.61,1.51-1,3.2-.58,4.81.11.41.26.78.48,1.15.24.39.43.81.8,1.09.3.23.66.36,1.01.49.91.36,1.83.71,2.75,1.04.78.28,1.59.37,2.39.1s1.24-.94,1.76-1.53c-.05.06-1.6-.63-1.75-.68-.41-.16-.83-.31-1.24-.47-.06-.02-.49-.21-.52-.18-.45.51-.86,1.11-1.49,1.42-.31.15-.65.22-.99.26-.19.02-.39.03-.58.02-.07,0-.62-.11-.32,0l2.93,1.12c-.6-.27-.86-.73-1.19-1.27s-.53-1.11-.63-1.73c-.2-1.18.04-2.34.4-3.47.58-1.8,2.12-4.11,4.35-3.46l-3-1.12.15.06-.51-.21c.42.21.64.44.66.92,0,.03.57.23.51.21.41.16.82.32,1.24.48s.83.31,1.24.47c.06.02.52.16.52.18h0Z"/>
  <path class="st0" d="M88.61,55.99c-.56-.31-.78-1.03-1.01-1.59-.43-1.09-.65-2.2-.67-3.37-.05-2.29.36-4.65.65-6.92.27-2.11.81-4.23,1.3-6.3.46-1.94,1.5-4.02.96-6.02-.06-.21-1.52-.6-1.75-.68s-1.7-.44-1.76-.65c.54,1.99-.5,4.08-.96,6.02-.49,2.07-1.03,4.19-1.3,6.3-.29,2.27-.7,4.63-.65,6.92.03,1.17.24,2.28.67,3.37.22.56.45,1.28,1.01,1.59,1.08.6,2.43.73,3.51,1.33h0Z"/>
  <path class="st0" d="M84.44,84.55c.56-.29.81-1.01,1.05-1.57.46-1.07.71-2.18.77-3.35.12-2.29-.23-4.66-.46-6.94-.21-2.12-.69-4.25-1.12-6.34-.4-1.95-1.39-4.06-.79-6.04.03-.11-3.52-1.28-3.51-1.33-.6,1.98.39,4.09.79,6.04.43,2.09.91,4.22,1.12,6.34.22,2.28.57,4.65.46,6.94-.06,1.17-.31,2.27-.77,3.35-.24.56-.49,1.27-1.05,1.57.19-.1,1.51.59,1.75.68.28.11,1.49.79,1.76.65h0Z"/>
  <path class="st0" d="M96.35,47.53c.15-.66-.08-1.4-.71-1.71-.89-.44-1.88-.74-2.81-1.08-.42-.16-.86-.39-1.32-.29-1.55.33-2.45,2.26-2.92,3.59-.59,1.65-.8,3.46-.06,5.09.27.6.66,1.1,1.27,1.37,1,.43,2.04.8,3.06,1.17.43.16.84.26,1.3.29,1.47.12,3.87-.31,4.18-2.07.01-.07-1.6-.63-1.75-.68-.13-.05-1.77-.6-1.76-.65-.34,1.98-3.47,2.45-5.04,1.93,1.13.43,2.25.86,3.38,1.28-.84-.35-1.24-1.37-1.45-2.18-.28-1.07-.21-2.17.06-3.24s.69-2.12,1.3-3.03c.5-.73,1.45-1.77,2.44-1.54l-.24-.08.1.04-3.26-1.25c.63.31.86,1.06.71,1.71-.01.06,1.61.63,1.75.68s1.77.62,1.76.65h0Z"/>
  <path class="st0" d="M94.02,80.22c.01-.31.64-.51.86-.6.55-.23,1.11-.41,1.68-.59.12-.04,1-.22,1.03-.36.03-.13-1.11-.48-1.27-.54-.75-.29-1.51-.59-2.27-.83l3.38,1.28c-.2-.09-.34-.41-.44-.59-.19-.35-.34-.71-.49-1.07-.3-.71-.54-1.49-.98-2.13-.25-.37-.6-.44-1.01-.6-.81-.32-1.62-.63-2.44-.92-.16-.06-.34-.15-.52-.14-.47.03-1.06.4-1.46.63-.52.29-1.02.64-1.48,1.02-.83.68-1.68,1.53-2.06,2.56s-.3,2.35,0,3.43c.21.77.43,1.56,1.15,1.99s1.57.67,2.34.96c.82.31,1.66.71,2.52.89,1.23.27,2.55-.17,3.68-.63s2.3-1.1,3.45-1.66c-.03.01-.56-.23-.51-.21-.41-.16-.82-.32-1.24-.48s-.83-.31-1.24-.47c-.09-.03-.44-.22-.52-.18-1.32.65-2.61,1.37-4,1.87-.71.25-1.46.46-2.22.49-.32.01-.65,0-.97-.08-1.57-.39,3.47,1.46,2.47.96-.13-.06-.26-.12-.38-.2-.4-.27-.63-.67-.79-1.11-.21-.58-.4-1.2-.46-1.82-.08-.78-.06-1.68.21-2.42.23-.63.66-1.19,1.11-1.68.59-.63,1.27-1.19,2.01-1.65.37-.23.75-.44,1.14-.61.17-.07.63-.34.81-.27l-3.44-1.31c.36.18.55.72.71,1.05.27.59.49,1.19.75,1.78.17.4.36.95.71,1.23.08.07.18.1.27.15.52.22,1.06.42,1.6.62.61.23,1.23.52,1.87.67l-3.51-1.33s-.39.19-.44.2c-.42.14-.84.27-1.26.41s-.86.29-1.27.49c-.18.09-.59.24-.6.48,0,.11,1.59.62,1.75.68s1.76.56,1.76.65h0Z"/>
  <path class="st0" d="M106.96,51.77c.02-.3.55-.5.77-.6.5-.23,1.03-.42,1.55-.61.12-.04.86-.21.89-.36.02-.09-1.4-.57-1.52-.62-.67-.25-1.36-.51-2.03-.74l3.44,1.31c-.45-.23-.65-1.06-.82-1.5-.27-.71-.5-1.46-.84-2.13-.09-.18-.19-.38-.36-.5-.35-.25-.91-.37-1.31-.52-.45-.17-.9-.34-1.35-.51-.22-.08-.6-.29-.84-.31-.32-.02-.63.15-.92.3-.49.25-.94.56-1.37.9-.86.68-1.68,1.53-2.17,2.53s-.52,2.23-.34,3.28c.17.99.64,2.05,1.5,2.62.65.43,1.48.64,2.2.92s1.53.7,2.32.78c.66.07,1.36.08,2.03.1.56.01,1.17.02,1.69-.2.93-.39,1.82-1.04,2.6-1.66-.01,0-.58-.24-.51-.21-.41-.16-.82-.32-1.24-.48s-.83-.31-1.24-.47c-.07-.03-.47-.22-.52-.18-.45.36-.92.68-1.41.98-.44.28-.9.6-1.4.75-.73.22-1.56.13-2.3.08-.34-.02-.69-.04-1.03-.05-.13,0-.25-.02-.38-.04h-.05c-.56-.13-.08.05,1.43.54,1.47.65,1.93.81,1.38.51l-.09-.06c-1.07-.71-1.52-2.11-1.57-3.33-.03-.73,0-1.54.26-2.23.23-.62.62-1.17,1.05-1.66.53-.62,1.15-1.16,1.83-1.62.29-.2.6-.38.91-.53.19-.09.52-.3.74-.26l-.52-.18h.03c-1-.37-1.99-.75-2.99-1.14.33.18.48.69.62,1.01.24.59.44,1.19.67,1.78.16.4.31.96.64,1.26.34.32.98.44,1.41.6.69.26,1.66.65,2.26.83l-3.44-1.31s-.37.19-.41.21c-.37.14-.75.27-1.12.41-.39.15-.79.3-1.16.5-.17.09-.51.24-.52.48,0,.11,1.59.62,1.75.68.15.06,1.76.56,1.76.65h0Z"/>
  <path class="st0" d="M117.15,54.35c-1.24.34-2.51.81-3.81.49l.24.08-.24-.08,3.26,1.25c-1.28-.63-1.45-2.09-1.5-3.38-.05-1.54.12-3.09.18-4.63.13-3.2-.33-6.38-.32-9.58,0-.13-1.58-.62-1.75-.68s-1.76-.54-1.76-.65c0,2.38.26,4.74.34,7.12s-.28,4.73-.2,7.09c.03.89.11,1.95.65,2.7.57.79,1.75,1.04,2.6,1.36.96.36,1.96.88,3.01.85.96-.02,1.89-.36,2.8-.61-.05.01-.53-.22-.51-.21-.41-.16-.82-.32-1.24-.48s-.83-.31-1.24-.47c-.11-.04-.41-.21-.52-.18h0Z"/>
  <path class="st0" d="M109.69,45.62c2.1-.25,4.18-.61,6.29-.75s4.34-.08,6.51-.14c-.1,0-.47-.19-.51-.21-.41-.16-.82-.32-1.24-.48s-.83-.31-1.24-.47c-.14-.05-.37-.19-.52-.18-2.17.06-4.34-.01-6.51.14s-4.19.5-6.29.75c.08,0,.5.2.51.21.41.16.82.32,1.24.48s.83.31,1.24.47c.13.05.38.2.52.18h0Z"/>
  <path class="st0" d="M95.55,49.01c-1.47,2.31-.57,6.09-.02,8.53s1.93,4.42,3.24,6.6,3.05,4.71,3.08,7.28c.04,2.91-1.21,5.73-3.3,7.73-1.65,1.58-3.67,2.58-5.76,3.45.24-.1,1.48.58,1.75.68.31.12,1.44.78,1.76.65,4.38-1.81,8.3-4.7,8.96-9.75.37-2.84-.96-5.26-2.35-7.65-1.12-1.94-2.76-3.89-3.47-6.03-.65-1.97-.98-4.22-1.06-6.29-.05-1.28-.03-2.77.68-3.89-.12.19-3.35-1.57-3.51-1.33h0Z"/>
  <path class="st0" d="M80.54,73.76c-.21-.46-.77-.61-1.21-.78-1.07-.42-2.15-.94-3.26-1.21s-2.07.54-2.8,1.29c-1.64,1.69-2.07,4.22-1.89,6.49.07.88.28,1.78.84,2.48.27.34.6.62.98.84.9.52,1.98.82,2.95,1.18.45.17.97.44,1.47.39.45-.05.86-.31,1.2-.59.83-.69,1.45-1.66,1.87-2.64,1.02-2.33.46-5.07-.14-7.44-.01-.04-.56-.23-.51-.21-.41-.16-.82-.32-1.24-.48s-.83-.31-1.24-.47c-.07-.02-.51-.14-.52-.18.52,2.08,1.08,4.56.43,6.66-.32,1.05-.88,2.06-1.61,2.88-.53.6-1.41,1.38-2.29,1.08l3.38,1.28c-2.33-1.03-2.24-4.02-1.95-6.13.18-1.29.66-2.53,1.51-3.53.79-.93,1.97-1.96,3.26-1.51l-3.38-1.28c.27.12.51.27.64.55.02.05.53.22.51.21.41.16.82.32,1.24.48s.83.31,1.24.47c.08.03.49.12.52.18h0Z"/>
  <path class="st0" d="M49.09,57.94c1.37.69,2.71,1.47,4.06,2.2,1.83.99,3.66,1.74,5.61,2.47,2.76,1.02,5.52,1.22,8.36.37,2.34-.7,6.23-2.65,5.32-5.69-.07-.22-1.51-.59-1.75-.68s-1.69-.43-1.76-.65c.75,2.5-1.87,4.29-3.85,5.16-2.28,1.01-4.96,1.37-7.42.91-.48-.09-1.54-.49.18.19s1.01.44.72.28c-.23-.13-.48-.25-.72-.37-.66-.35-1.32-.71-1.98-1.07-1.09-.59-2.17-1.22-3.28-1.78s-2.4-.78-3.51-1.33h0Z"/>
  <path class="st0" d="M29.91,35.8c-3.07,1.32-6.42,2.62-9.94,2.88-1.76.13-3.5-.13-4.52-1.79-.79-1.28-.56-3.7,1.18-3.95s1.89,2.07,1.57,3.06c-.25.78,2.3.63,2.56-.16.43-1.32.21-3.06-1.39-3.83s-3.83-.37-5.14.51c-2.53,1.69-2.33,5.59,1.04,6.99,2.79,1.16,6.17.41,8.76-.25,2.4-.62,4.72-1.43,6.95-2.39,1.54-.66.03-1.52-1.08-1.04h0Z"/>
  <path class="st0" d="M34.16,29.24c-3.12-1.35-6.44-2.94-9.21-5.44-1.39-1.25-2.51-2.8-2.2-4.87.24-1.59,1.96-3.28,3.41-2.13s.07,3.06-.79,3.57c-.69.41,1.3,2.26,2,1.85,1.16-.69,2.12-2.2,1.42-4.03s-2.61-3.24-4.13-3.57c-2.96-.65-5.31,2.51-3.71,6.19,1.33,3.04,4.31,5.08,6.66,6.56,2.18,1.38,4.42,2.54,6.69,3.51,1.57.68,1-1.15-.13-1.64h0Z"/>
  <path class="st0" d="M40.7,26.08c-.89-3.23-1.72-6.76-1.51-10.44.11-1.84.6-3.67,2.37-4.74,1.37-.82,3.72-.56,3.74,1.27.02,1.9-2.3,1.97-3.22,1.63-.74-.27-.93,2.41-.19,2.68,1.24.46,2.99.24,3.96-1.44s.87-4.02.19-5.39c-1.33-2.66-5.2-2.48-7.02,1.05-1.51,2.92-1.23,6.48-.92,9.2.29,2.52.78,4.96,1.43,7.3.45,1.62,1.5.04,1.17-1.13h0Z"/>
  <path class="st0" d="M29.42,44.17c-1.4,3.05-3.04,6.3-5.56,8.94-1.26,1.33-2.8,2.38-4.8,1.97-1.54-.31-3.12-2.11-1.97-3.51s2.97.07,3.44.96c.37.71,2.23-1.19,1.86-1.91-.63-1.19-2.07-2.22-3.86-1.62-1.87.63-3.22,2.45-3.59,3.96-.72,2.92,2.28,5.43,5.89,4,2.99-1.18,5.06-4.07,6.57-6.34,1.4-2.11,2.59-4.29,3.61-6.51.7-1.53-1.09-1.05-1.6.05h0Z"/>
  <path class="st1" d="M47.97,28.17c-11.82-3.32-22.81,7-14.79,22.59"/>
</svg>